<svg width="39" height="42" viewBox="0 0 39 42" fill="none" xmlns="http://www.w3.org/2000/svg">
<path fill-rule="evenodd" clip-rule="evenodd" d="M33.4105 14.4061L33.5069 17.4116L13.3959 0L12.0955 1.51954L33.5942 20.1325L33.6221 21.0037L23.5892 29.6899C25.6845 27.3084 26.9564 24.177 26.9564 20.7469C26.9564 13.291 20.9473 7.24685 13.5346 7.24685C6.12194 7.24685 0.112793 13.291 0.112793 20.7469C0.112793 28.2027 6.12194 34.2469 13.5346 34.2469C16.2214 34.2469 18.7237 33.4528 20.8224 32.0853L12.0955 39.6408L13.3959 41.1604L33.7047 23.5776L34.2219 39.7057L36.2209 39.6408L35.4116 14.4071C37.4019 13.9508 38.8872 12.1597 38.8872 10.0195C38.8872 7.53426 36.8842 5.51954 34.4133 5.51954C31.9424 5.51954 29.9393 7.53426 29.9393 10.0195C29.9393 12.1581 31.4224 13.9482 33.4105 14.4061ZM13.5346 32.2469C19.8318 32.2469 24.9564 27.1091 24.9564 20.7469C24.9564 14.3846 19.8318 9.24685 13.5346 9.24685C7.23745 9.24685 2.11279 14.3846 2.11279 20.7469C2.11279 27.1091 7.23745 32.2469 13.5346 32.2469ZM36.8872 10.0195C36.8872 11.4112 35.7687 12.5195 34.4133 12.5195C33.0579 12.5195 31.9393 11.4112 31.9393 10.0195C31.9393 8.62786 33.0579 7.51954 34.4133 7.51954C35.7687 7.51954 36.8872 8.62786 36.8872 10.0195Z" fill="#567E90"/>
</svg>
