<svg width="40" height="42" viewBox="0 0 40 42" fill="none" xmlns="http://www.w3.org/2000/svg">
<path fill-rule="evenodd" clip-rule="evenodd" d="M33.9196 14.4023L34.0159 17.4078L13.905 -0.00372314L12.6046 1.51582L34.1032 20.1288L34.1311 21L24.0982 29.6862C26.1936 27.3047 27.4655 24.1733 27.4655 20.7431C27.4655 13.2873 21.4563 7.24313 14.0436 7.24313C6.63098 7.24313 0.621826 13.2873 0.621826 20.7431C0.621826 28.199 6.63098 34.2431 14.0436 34.2431C16.7304 34.2431 19.2328 33.4491 21.3315 32.0816L12.6046 39.6371L13.905 41.1566L34.2137 23.5739L34.7309 39.702L36.7299 39.6371L35.9206 14.4034C37.9109 13.9471 39.3962 12.1559 39.3962 10.0158C39.3962 7.53054 37.3932 5.51582 34.9223 5.51582C32.4514 5.51582 30.4484 7.53054 30.4484 10.0158C30.4484 12.1543 31.9315 13.9445 33.9196 14.4023ZM14.0436 32.2431C20.3408 32.2431 25.4655 27.1054 25.4655 20.7431C25.4655 14.3809 20.3408 9.24313 14.0436 9.24313C7.74648 9.24313 2.62183 14.3809 2.62183 20.7431C2.62183 27.1054 7.74648 32.2431 14.0436 32.2431ZM37.3962 10.0158C37.3962 11.4075 36.2777 12.5158 34.9223 12.5158C33.5669 12.5158 32.4484 11.4075 32.4484 10.0158C32.4484 8.62414 33.5669 7.51582 34.9223 7.51582C36.2777 7.51582 37.3962 8.62414 37.3962 10.0158Z" fill="#F9F9F9"/>
</svg>
